<svg width="39" height="39" viewBox="0 0 39 39" fill="none" xmlns="http://www.w3.org/2000/svg">
<circle cx="19.2974" cy="19.2027" r="18.9527" fill="#FE724C" stroke="white" stroke-width="0.5"/>
<path fill-rule="evenodd" clip-rule="evenodd" d="M19.6204 10.4866C15.5536 10.4728 12.2318 13.7084 12.0991 17.7584L12.095 18.0097C12.1626 19.9949 12.838 21.8872 14.0276 23.4462L14.307 23.8108C15.4424 25.2546 16.7918 26.5219 18.307 27.5664L18.6718 27.8119L18.725 27.8537C19.2443 28.2269 19.9455 28.2269 20.4648 27.8537L20.5091 27.8173C21.7113 27.0376 22.82 26.1215 23.813 25.0871C25.832 22.95 27.0488 20.5553 27.0948 18.1233L27.0949 18.033C27.1087 13.9559 23.8831 10.6239 19.8455 10.4907L19.6204 10.4866ZM19.6158 11.8256C22.9498 11.837 25.6567 14.5008 25.7572 17.8182L25.76 18.1107C25.7214 20.1497 24.6538 22.2505 22.8478 24.1623C21.9269 25.1215 20.8944 25.9742 19.7745 26.6994L19.6999 26.7555C19.6396 26.8078 19.5501 26.8078 19.4898 26.7555L19.4173 26.7007C17.749 25.6115 16.2848 24.2364 15.0917 22.6381C14.1307 21.3786 13.5612 19.8726 13.4465 18.3015L13.4297 17.9865C13.441 14.6445 16.0967 11.9293 19.4038 11.8284L19.6158 11.8256ZM19.5949 15.2525C18.0169 15.2525 16.7377 16.5356 16.7377 18.1185C16.7377 19.7014 18.0169 20.9845 19.5949 20.9845C21.1729 20.9845 22.4521 19.7014 22.4521 18.1185C22.4521 16.5356 21.1729 15.2525 19.5949 15.2525ZM19.5949 16.5913C20.4358 16.5913 21.1174 17.275 21.1174 18.1184C21.1174 18.9619 20.4358 19.6456 19.5949 19.6456C18.7541 19.6456 18.0725 18.9619 18.0725 18.1184C18.0725 17.275 18.7541 16.5913 19.5949 16.5913Z" fill="white"/>
</svg>
